<?xml version="1.0" encoding="UTF-8"?>
<!DOCTYPE svg PUBLIC "-//W3C//DTD SVG 1.1//EN" "http://www.w3.org/Graphics/SVG/1.1/DTD/svg11.dtd">
<!-- Creator: CorelDRAW 2021.5 -->
<svg xmlns="http://www.w3.org/2000/svg" xml:space="preserve" width="1000px" height="250px" version="1.1" style="shape-rendering:geometricPrecision; text-rendering:geometricPrecision; image-rendering:optimizeQuality; fill-rule:evenodd; clip-rule:evenodd"
viewBox="0 0 100000 25000"
 xmlns:xlink="http://www.w3.org/1999/xlink"
 xmlns:xodm="http://www.corel.com/coreldraw/odm/2003">
 <defs>
  <style type="text/css">
   <![CDATA[
    .str0 {stroke:#2B2A29;stroke-width:50;stroke-miterlimit:22.9256}
    .fil0 {fill:none}
    .fil7 {fill:#434242}
    .fil4 {fill:#7688A1}
    .fil5 {fill:#6969AD}
    .fil8 {fill:#00A0E3}
    .fil6 {fill:#419BC5}
    .fil1 {fill:#549FB4}
    .fil3 {fill:#434242;fill-rule:nonzero}
    .fil2 {fill:#3F4D8C;fill-rule:nonzero}
   ]]>
  </style>
 </defs>
 <g id="Слой_x0020_1">
  <metadata id="CorelCorpID_0Corel-Layer"/>
  <g id="_2546927922432">
   <line class="fil0 str0" x1="15148" y1="10379" x2="15148" y2= "13619" />
   <polyline class="fil0 str0" points="15148,13619 16572,13597 16584,16696 15981,16696 15964,14059 14732,14067 14699,10677 13955,11322 13657,10991 22963,4207 27593,7018 29809,5480 35465,8870 35002,8870 30008,6208 27147,7895 26733,7547 27411,7150 23228,5199 15148,10379 "/>
   <path class="fil0 str0" d="M13326 10545c-154,-6 -506,125 -724,241 -219,116 -304,219 -327,329 -22,111 17,230 102,310 86,79 216,119 350,102 133,-17 269,-91 380,-216 111,-125 196,-301 261,-460 66,-159 111,-301 -42,-306z"/>
   <path class="fil1 str0" d="M13569 11738c-63,138 -182,369 -288,515 -106,146 -200,207 -284,235 -84,27 -158,22 -237,-21 -78,-43 -161,-123 -191,-212 -31,-90 -9,-189 92,-272 101,-82 280,-149 457,-224 178,-76 355,-162 439,-182 84,-21 75,23 12,161z"/>
   <path class="fil1 str0" d="M12052 11967c-70,8 -225,58 -354,104 -130,47 -235,91 -301,140 -66,48 -93,100 -107,153 -14,52 -14,104 5,150 20,45 58,84 123,111 65,28 156,44 248,13 92,-32 186,-112 258,-222 71,-110 121,-251 153,-338 31,-87 45,-120 -25,-111z"/>
   <polyline class="fil0 str0" points="14721,12876 9589,12876 9581,13298 "/>
   <line class="fil0 str0" x1="11681" y1="14662" x2="11673" y2= "14927" />
   <line class="fil0 str0" x1="11673" y1="14927" x2="14725" y2= "14886" />
   <line class="fil0 str0" x1="14725" y1="14886" x2="14732" y2= "14067" />
   <path class="fil0 str0" d="M9581 13298c65,8 130,16 199,37 70,21 144,54 214,90 71,35 137,74 199,132 62,58 120,135 173,220 54,86 104,180 166,265 62,85 136,163 213,238 78,76 158,151 260,207 101,57 226,95 342,121 116,27 225,40 334,54"/>
   <path class="fil0 str0" d="M12677 14913c39,115 78,230 170,346 92,117 238,235 367,313 128,77 238,113 343,153 104,40 204,84 293,124 90,40 170,75 239,124 68,48 126,109 168,177 41,69 66,146 75,242 10,95 5,208 2,264 -3,57 -3,57 -3,57"/>
   <path class="fil0 str0" d="M13893 14897c30,43 61,86 138,136 77,51 201,109 313,157 111,48 210,87 304,142 94,55 182,127 256,191 75,65 135,123 186,193 51,71 93,153 134,237 41,84 83,170 105,301 22,131 25,307 27,483"/>
   <line class="fil0 str0" x1="15356" y1="16737" x2="14331" y2= "16713" />
   <rect class="fil0 str0" x="22508" y="6262" width="645" height="513"/>
   <rect class="fil0 str0" x="23385" y="6262" width="719" height="513"/>
   <rect class="fil0 str0" x="22508" y="6898" width="645" height="546"/>
   <rect class="fil0 str0" x="23385" y="6898" width="719" height="546"/>
   <path class="fil2" d="M19822 12187l-1282 0 -184 604 -1155 0 1378 -3663 1239 0 1373 3663 -1185 0 -184 -604zm-239 -792l-400 -1317 -402 1317 802 0zm5548 859c140,98 232,160 276,185 64,37 152,79 261,128l-313 633c-158,-76 -315,-167 -469,-273 -155,-105 -264,-185 -325,-237 -250,108 -563,162 -939,162 -557,0 -996,-145 -1318,-434 -380,-343 -570,-825 -570,-1445 0,-603 166,-1071 499,-1405 332,-334 796,-501 1393,-501 608,0 1077,163 1407,489 331,326 497,793 497,1400 0,541 -133,973 -399,1298zm-867 -581c90,-161 135,-402 135,-723 0,-370 -69,-633 -206,-792 -138,-157 -328,-237 -570,-237 -226,0 -408,81 -548,242 -141,162 -210,414 -210,757 0,400 68,680 204,841 137,161 325,242 563,242 77,0 149,-7 217,-22 -95,-92 -245,-178 -451,-260l178 -407c100,18 179,41 234,68 56,26 165,96 328,209 39,27 80,54 126,82zm4685 -2545l1130 0 0 2182c0,216 -34,420 -101,612 -68,193 -174,361 -318,505 -144,144 -295,245 -452,303 -220,81 -485,122 -792,122 -179,0 -373,-12 -583,-37 -211,-25 -388,-74 -529,-148 -142,-75 -271,-179 -388,-316 -118,-136 -198,-277 -241,-422 -70,-233 -105,-439 -105,-619l0 -2182 1130 0 0 2234c0,200 56,356 166,467 111,113 264,169 460,169 194,0 346,-55 457,-166 110,-110 166,-267 166,-470l0 -2234zm4382 3059l-1282 0 -185 604 -1155 0 1379 -3663 1239 0 1372 3663 -1185 0 -183 -604zm-240 -792l-400 -1317 -401 1317 801 0z"/>
   <path class="fil3" d="M17897 16112l1074 -68c23,174 71,307 142,398 117,147 283,221 500,221 161,0 285,-37 372,-113 88,-76 132,-164 132,-264 0,-94 -41,-180 -124,-255 -83,-75 -275,-145 -578,-212 -496,-111 -849,-259 -1061,-444 -213,-184 -319,-419 -319,-706 0,-187 54,-365 163,-532 109,-168 273,-299 492,-395 219,-95 519,-143 901,-143 468,0 824,87 1070,262 245,174 391,451 438,831l-1064 63c-28,-166 -88,-287 -178,-362 -92,-76 -217,-114 -376,-114 -132,0 -231,29 -298,84 -66,55 -100,124 -100,204 0,58 28,110 81,157 52,48 178,93 378,134 494,107 848,215 1061,324 214,109 370,244 468,406 97,161 145,342 145,542 0,235 -64,451 -194,650 -130,198 -311,349 -545,451 -233,102 -526,153 -880,153 -623,0 -1054,-120 -1294,-359 -239,-240 -375,-544 -406,-913zm3632 -2451l3443 0 0 905 -1156 0 0 2757 -1131 0 0 -2757 -1156 0 0 -905zm3632 1833c0,-597 166,-1063 500,-1395 333,-334 797,-500 1392,-500 609,0 1079,164 1409,490 330,328 495,786 495,1375 0,428 -72,779 -216,1053 -144,273 -353,486 -625,639 -273,153 -612,228 -1019,228 -412,0 -754,-65 -1025,-197 -271,-132 -491,-340 -659,-624 -168,-284 -252,-641 -252,-1069zm1131 3c0,369 69,635 206,796 138,161 326,242 563,242 243,0 432,-79 565,-237 134,-158 200,-441 200,-851 0,-345 -70,-596 -209,-755 -140,-159 -328,-239 -567,-239 -228,0 -412,81 -550,242 -139,162 -208,429 -208,802zm3278 -1836l1131 0 0 1383 1186 -1383 1505 0 -1337 1376 1398 2286 -1392 0 -773 -1504 -587 612 0 892 -1131 0 0 -3662z"/>
   <path class="fil4 str0" d="M13107 11311c111,-125 196,-301 261,-460 66,-159 111,-301 -42,-306 -154,-6 -506,125 -724,241 -219,116 -304,219 -327,329 -22,111 17,230 102,310 86,79 216,119 350,102 133,-17 269,-91 380,-216z"/>
   <path class="fil5 str0" d="M13107 11311c111,-125 196,-301 261,-460 66,-159 111,-301 -42,-306 -154,-6 -506,125 -724,241 -219,116 -304,219 -327,329 -22,111 17,230 102,310 86,79 216,119 350,102 133,-17 269,-91 380,-216z"/>
   <path class="fil6 str0" d="M13107 11311c111,-125 196,-301 261,-460 66,-159 111,-301 -42,-306 -154,-6 -506,125 -724,241 -219,116 -304,219 -327,329 -22,111 17,230 102,310 86,79 216,119 350,102 133,-17 269,-91 380,-216z"/>
   <path class="fil4 str0" d="M13107 11311c111,-125 196,-301 261,-460 66,-159 111,-301 -42,-306 -154,-6 -506,125 -724,241 -219,116 -304,219 -327,329 -22,111 17,230 102,310 86,79 216,119 350,102 133,-17 269,-91 380,-216z"/>
   <path class="fil1 str0" d="M13107 11311c111,-125 196,-301 261,-460 66,-159 111,-301 -42,-306 -154,-6 -506,125 -724,241 -219,116 -304,219 -327,329 -22,111 17,230 102,310 86,79 216,119 350,102 133,-17 269,-91 380,-216z"/>
   <path class="fil7 str0" d="M14721 12876l-5132 0 -8 422c65,8 130,16 199,37 70,21 144,54 214,90 71,35 137,74 199,132 62,58 120,135 173,220 54,86 104,180 166,265 62,85 136,163 213,238 78,76 158,151 260,207 101,57 226,95 342,121 116,27 225,40 334,54l-8 265 1004 -14 1216 -16 832 -11 7 -819 -11 -1191z"/>
   <path class="fil7 str0" d="M13893 14897l-1216 16c39,115 78,230 170,346 92,117 238,235 367,313 128,77 238,113 343,153 104,40 204,84 293,124 90,40 170,75 239,124 68,48 126,109 168,177 41,69 66,146 75,242 10,95 5,208 2,264 -3,57 -3,57 -3,57l1025 24c-2,-176 -5,-352 -27,-483 -22,-131 -64,-217 -105,-301 -41,-84 -83,-166 -134,-237 -51,-70 -111,-128 -186,-193 -74,-64 -162,-136 -256,-191 -94,-55 -193,-94 -304,-142 -112,-48 -236,-106 -313,-157 -77,-50 -108,-93 -138,-136z"/>
   <polygon class="fil7 str0" points="14699,10677 14721,12876 14732,14067 15964,14059 15981,16696 16584,16696 16572,13597 15148,13619 15148,10379 23228,5199 27411,7150 26733,7547 27147,7895 30008,6208 35002,8870 35465,8870 29809,5480 27593,7018 22963,4207 13657,10991 13955,11322 "/>
   <polygon class="fil4 str0" points="22508,6898 22508,7444 23153,7444 23153,6898 "/>
   <polygon class="fil4 str0" points="22508,6774 23153,6774 23153,6262 22508,6262 "/>
   <polygon class="fil4 str0" points="23385,6262 23385,6774 24104,6774 24104,6262 "/>
   <polygon class="fil4 str0" points="24104,6898 23385,6898 23385,7444 24104,7444 "/>
   <path class="fil8 str0" d="M13368 10851c66,-159 111,-301 -42,-306 -154,-6 -506,125 -724,241 -219,116 -304,219 -327,329 -22,111 17,230 102,310 86,79 216,119 350,102 133,-17 269,-91 380,-216 111,-125 196,-301 261,-460z"/>
   <path class="fil8 str0" d="M13118 11759c-177,75 -356,142 -457,224 -101,83 -123,182 -92,272 30,89 113,169 191,212 79,43 153,48 237,21 84,-28 178,-89 284,-235 106,-146 225,-377 288,-515 63,-138 72,-182 -12,-161 -84,20 -261,106 -439,182z"/>
   <path class="fil8 str0" d="M12077 12078c31,-87 45,-120 -25,-111 -70,8 -225,58 -354,104 -130,47 -235,91 -301,140 -66,48 -93,100 -107,153 -14,52 -14,104 5,150 20,45 58,84 123,111 65,28 156,44 248,13 92,-32 186,-112 258,-222 71,-110 121,-251 153,-338z"/>
  </g>
 </g>
</svg>
